<?xml version="1.0" encoding="UTF-8"?>
<svg id="Layer_1" data-name="Layer 1" xmlns="http://www.w3.org/2000/svg" version="1.1" viewBox="0 0 184.3 39.7">
  <defs>
    <style>
      .cls-1 {
        fill: #fff;
        stroke-width: 0px;
      }
    </style>
  </defs>
  <path class="cls-1" d="M18.9,5.3c.2.5.4,1.1.8,1.7.4-.8.9-1.4,1.3-1.9,1.1-1.4,2.4-1.5,3.5,0,1.5,1.8,2,4,2.5,6.2,1.3,6.3,1.3,12.8-.4,19-.3,1.3-.9,2.7-1.6,3.9-1.3,2.2-3,2.2-4.4,0-.3-.5-.5-1.1-1-1.6-.4,1-.8,1.8-1.2,2.7-.6,1.1-1.4,2.3-2.8,2.3s-2.3-1.2-2.8-2.4c-1.5-2.9-2.2-6-2.5-9.2-.6-5.9-.5-11.9,1.1-17.7.4-1.7,1.3-3.3,2.3-4.7,1.1-1.6,2.6-1.5,3.9,0,.5.6.9,1.3,1.3,2M14.7,28.4c.2.4.2,1,.5,1.4.5.9,1,1.7,1.7,2.5s1.2.4,1.8,0c.5-.4.6-.9.4-1.5-.4-2-1-4.2-1.2-6.3-.5-5.3-.4-10.4,1.2-15.6.2-.8.2-1.3-.5-1.7-.6-.4-1.4-.5-1.9,0-.5.6-1.2,1.3-1.4,2.2-2.3,6.2-2.2,12.6-.6,19.1M26.9,24c0-2.2.3-4.3.2-6.5,0-1.8-.8-3.7-1.3-5.5,0-.5-.9-1.2-1.3-1.2s-1.1.6-1.4,1.1-.5,1.2-.8,1.8c-1,3.8-1,7.4,0,11.2.2,1,.6,2,1.2,2.9.5,1,1.4,1,1.9,0,.5-1.2.9-2.5,1.4-3.9h0Z"/>
  <path class="cls-1" d="M59.6,28c-2.4,0-3.8-.9-4.3-3s-1.1-4.4-1.6-6.6c0-.3-.2-.6-.5-1-.9,3.5-1.7,7.1-2.7,10.6h-3.8c-1.4-5.5-2.9-11-4.4-16.6h3.7c.9,3.7,1.7,7.2,2.6,11.1.2-.4.3-.8.3-1,.8-3.1,1.6-6.2,2.4-9.4.2-.6.4-1,1.1-.9h2.6c1,3.8,1.8,7.3,2.8,11h.2c.5-2.3,1.1-4.4,1.6-6.7.2-1.1.5-2.2.8-3.2,0-1,.6-1.3,1.5-1.2h2.4c-1.5,5.6-3,11.1-4.6,16.7h0l-.2.2h.1Z"/>
  <path class="cls-1" d="M111.9,23.4c-.2,2.3-1.3,3.8-3.3,4.4-2.9,1.1-5.8,1.1-8.5-.8-1.5-1.1-2.2-2.5-2.2-4.4h3.4c.8,2.7,3.2,3.9,5.8,2.6.5-.2,1.1-1,1.1-1.5s-.4-1.3-1-1.6c-.8-.4-1.7-.6-2.6-1-1.3-.4-2.7-.8-4-1.3-2.7-1.3-3.2-4.8-1.1-6.9,2.4-2.4,7.6-2.5,10.1-.1,1,1,1.4,2.2,1.4,3.7h-3.3c-.9-2.2-2.4-2.9-4.4-2.3-.9.2-1.4.8-1.4,1.7s.5,1.3,1.3,1.5c1.6.5,3.2,1,4.8,1.4,2.6.8,3.7,2.2,3.8,4.7v-.2h0Z"/>
  <path class="cls-1" d="M6.7,29c1.2,2,2.4,4,3.4,5.7-3.9-.3-9.6-7.9-10.1-13.8C-.8,12.4,5.5,6,10.6,4.1c-6.2,7.4-7.1,15.7-3.9,24.7h0s0,.2,0,.2Z"/>
  <path class="cls-1" d="M150.6,28.1h-1.2c0-.4-.1-.9-.2-1.5-1.2,1.3-2.5,1.8-4.1,1.7-2.2,0-3.7-1.1-3.8-3.2-.2-3,0-6,0-9h3.2v7.7c0,1,.4,1.8,1.7,1.9,1.5,0,2.5-.4,2.7-1.7.2-1.2.2-2.5.2-3.8v-4.3h3.2v12h-1.8v.2h.1Z"/>
  <path class="cls-1" d="M167.4,15.9c4.6-.6,7.9,2.5,7.2,7h-8.5c0,1.2.3,2.2,1.3,2.7,1.2.6,2.5.6,3.3-.3,1.1-1.2,2.3-.9,3.5-.9-.5,2.7-2.8,4.2-6.1,4-2.9,0-5.2-2.4-5.5-5.5-.4-3.3,1.5-6.1,4.6-7.1M167.7,18.3c-1.1.4-1.6,1.2-1.7,2.4h5.2c0-1.9-1.1-2.7-3.4-2.4h-.1Z"/>
  <path class="cls-1" d="M85.8,18.3c1.9-2.5,4.8-3.3,7.4-2.3,2.5,1.1,3.9,3.9,3.4,6.8h-8.4c0,1.2.2,2,1.2,2.6,1.2.6,2.5.8,3.3-.2,1.1-1.2,2.3-1,3.5-1,0,2-2.2,3.8-4.6,4s-4.6-.4-5.9-2.7c-1.5-2.4-1.4-4.8,0-7.3M93,20.8s.2-.2.2-.3c0-1.4-1.2-2.4-2.7-2.4s-2.6,1-2.5,2.7c0,0,5,0,5,0Z"/>
  <path class="cls-1" d="M82.8,26.5v1.5h-3.3v-7.6c0-1.5-.8-1.9-1.9-1.9s-2.3.5-2.4,2c-.2,1.9,0,3.9-.2,5.9v1.8h-3.2v-11.9h3c0,.4,0,.8.2,1.3,1.1-1.1,2.3-1.7,3.8-1.7,2.5,0,4,1.3,4.1,3.9v7-.2h0Z"/>
  <path class="cls-1" d="M136.9,16.9c3.8,3.4,2.7,9.7-1.7,11.2-2.9,1-6.2,0-7.6-2.5-1.6-2.7-1.1-6.3,1.1-8.5,1.9-1.8,5.7-2,8.3-.2M134.1,25.6c1.7-.6,2.2-3.8,1.4-5.6-.4-1.2-1.3-1.8-2.6-1.8s-2.3.5-2.6,1.8c-.3,1.1-.4,2.3-.2,3.3.3,2.2,1.6,2.9,4,2.4h0Z"/>
  <path class="cls-1" d="M124.8,23.4c.4,1.4-.8,3.4-2.5,4.3-2.3,1.1-4.5,1-6.6-.4s-2.7-3.4-2.5-5.8c.4-4.4,4-6.8,8.3-5.6,2,.5,3.4,2.4,3.3,4.3h-2.6c-.2,0-.5-.3-.6-.5-.9-1.8-3.1-2-4.3-.4-1.1,1.4-1.1,4.2,0,5.6,1.1,1.5,3.5,1.4,4.2-.3.4-1.1,1.1-1.3,2-1.2,0,0,1.3,0,1.3,0Z"/>
  <path class="cls-1" d="M161.5,25.5c.1.9.2,1.6.2,2.7-1.3,0-2.6,0-3.7-.2-1.4-.2-1.9-1-2-2.5v-7.3h-1.8v-2.2c.5,0,1.1,0,1.8-.1v-3.4h3.3v3.4c.9,0,1.6,0,2.5.1v2.2h-2.4c0,2.3-.1,4.4,0,6.6,0,1.2,1.2.9,2.2.8h-.1Z"/>
  <path class="cls-1" d="M176.8,28v-11.9h3v1.8c1.2-1.4,2.5-2.6,4.5-2.2v3h-1c-2,0-3.2,1-3.3,3-.1,1.7,0,3.4,0,5.1v1.2s-3.2,0-3.2,0Z"/>
  <path class="cls-1" d="M65.5,22.2v-6.1h3.2v11.9h-3.2v-5.8Z"/>
  <path class="cls-1" d="M32.1,17.6c0,1.9-.2,3.7-.4,5.5,0,.4-.6.9-1,1.3-.3-.4-.9-.8-1-1.3-.6-2.4-.8-4.6,0-7,0-.4.6-.9,1-1.2.3.4.6.8.9,1.2s.2,1,.4,1.5h.1Z"/>
  <path class="cls-1" d="M65.5,12.1c.2-.3.4-.6.6-.6h2.6v2.7h-3.2v-1.9h0v-.2Z"/>
  <path class="cls-1" d="M10.7,35h0Z"/>
</svg>